<svg xmlns="http://www.w3.org/2000/svg" viewBox="0.74 20.8 515.88 224.35" width="1024" height="445.33"><title>Subscribe button</title><defs><linearGradient id="social_subscribe_button-bg" gradientUnits="userSpaceOnUse" x1="0" y1="40" x2="0" y2="176"><stop offset="0" stop-color="#FF5A5F"/><stop offset="1" stop-color="#EE2D45"/></linearGradient><linearGradient id="social_subscribe_button-gloss" gradientUnits="userSpaceOnUse" x1="0" y1="40" x2="0" y2="108"><stop offset="0" stop-color="#FFFFFF" stop-opacity="0.28"/><stop offset="1" stop-color="#FFFFFF" stop-opacity="0"/></linearGradient></defs><path d="M58 50H449.47A38 38 0 0 1 487.47 88V148A38 38 0 0 1 449.47 186H58A38 38 0 0 1 20 148V88A38 38 0 0 1 58 50Z" fill="#C21B33"/><path d="M58 40H449.47A38 38 0 0 1 487.47 78V138A38 38 0 0 1 449.47 176H58A38 38 0 0 1 20 138V78A38 38 0 0 1 58 40Z" fill="url(#social_subscribe_button-bg)"/><path d="M60 46H447.47A30 30 0 0 1 477.47 76V78A30 30 0 0 1 447.47 108H60A30 30 0 0 1 30 78V76A30 30 0 0 1 60 46Z" fill="url(#social_subscribe_button-gloss)"/><g transform="translate(78 104) rotate(-12)"><path d="M-27 17C-27 -8 -22 -31 0 -31C22 -31 27 -8 27 17L33 25C35 29 33 31 29 31H-29C-33 31 -35 29 -33 25ZM-11 37A11 11 0 0 0 11 37Z" fill="#FFFFFF"/><circle cx="0" cy="-35" r="6" fill="#FFFFFF"/></g><path d="M145.39 123.52Q138.75 123.52 134.48 120.36Q130.21 117.2 129.89 111.32H141.18Q141.34 113.31 142.36 114.23Q143.39 115.15 145.01 115.15Q146.47 115.15 147.41 114.42Q148.36 113.69 148.36 112.4Q148.36 110.72 146.79 109.81Q145.23 108.89 141.72 107.75Q137.99 106.51 135.69 105.35Q133.4 104.19 131.7 101.95Q130 99.71 130 96.09Q130 92.42 131.83 89.8Q133.67 87.18 136.91 85.83Q140.15 84.48 144.25 84.48Q150.9 84.48 154.87 87.58Q158.83 90.69 159.1 96.31H147.6Q147.55 94.58 146.55 93.71Q145.55 92.85 143.98 92.85Q142.8 92.85 142.04 93.55Q141.28 94.25 141.28 95.55Q141.28 96.63 142.12 97.41Q142.96 98.19 144.2 98.76Q145.44 99.33 147.87 100.19Q151.49 101.44 153.84 102.65Q156.19 103.87 157.89 106.05Q159.59 108.24 159.59 111.59Q159.59 114.99 157.89 117.69Q156.19 120.39 152.97 121.95Q149.76 123.52 145.39 123.52ZM176.49 85.07V107.16Q176.49 110.24 177.92 111.91Q179.35 113.59 182.27 113.59Q185.19 113.59 186.67 111.88Q188.16 110.18 188.16 107.16V85.07H198.74V107.16Q198.74 112.4 196.53 116.1Q194.31 119.8 190.5 121.66Q186.7 123.52 182.05 123.52Q177.41 123.52 173.76 121.66Q170.12 119.8 168.04 116.12Q165.96 112.45 165.96 107.16V85.07H176.49ZM230.49 103.59Q233.84 104.35 235.81 106.92Q237.78 109.48 237.78 112.78Q237.78 117.64 234.43 120.39Q231.09 123.14 225.04 123.14H206.19V85.07H224.44Q230.28 85.07 233.6 87.66Q236.92 90.26 236.92 94.95Q236.92 98.3 235.16 100.54Q233.41 102.78 230.49 103.59ZM216.78 100.19H222.12Q226.12 100.19 226.12 96.9Q226.12 93.5 222.12 93.5H216.78V100.19ZM222.93 114.61Q226.93 114.61 226.93 111.26Q226.93 109.53 225.88 108.62Q224.82 107.7 222.88 107.7H216.78V114.61H222.93ZM258.41 123.52Q251.77 123.52 247.5 120.36Q243.24 117.2 242.91 111.32H254.2Q254.36 113.31 255.39 114.23Q256.41 115.15 258.03 115.15Q259.49 115.15 260.44 114.42Q261.38 113.69 261.38 112.4Q261.38 110.72 259.81 109.81Q258.25 108.89 254.74 107.75Q251.01 106.51 248.72 105.35Q246.42 104.19 244.72 101.95Q243.02 99.71 243.02 96.09Q243.02 92.42 244.86 89.8Q246.69 87.18 249.93 85.83Q253.17 84.48 257.28 84.48Q263.92 84.48 267.89 87.58Q271.86 90.69 272.13 96.31H260.62Q260.57 94.58 259.57 93.71Q258.57 92.85 257.01 92.85Q255.82 92.85 255.06 93.55Q254.31 94.25 254.31 95.55Q254.31 96.63 255.14 97.41Q255.98 98.19 257.22 98.76Q258.46 99.33 260.89 100.19Q264.51 101.44 266.86 102.65Q269.21 103.87 270.91 106.05Q272.61 108.24 272.61 111.59Q272.61 114.99 270.91 117.69Q269.21 120.39 266 121.95Q262.78 123.52 258.41 123.52ZM277.85 104.03Q277.85 98.41 280.2 94.01Q282.55 89.61 286.87 87.15Q291.19 84.69 296.8 84.69Q303.93 84.69 308.79 88.5Q313.65 92.31 315.06 98.84H303.66Q302.64 96.68 300.83 95.55Q299.02 94.42 296.64 94.42Q292.97 94.42 290.78 97.03Q288.6 99.65 288.6 104.03Q288.6 108.45 290.78 111.07Q292.97 113.69 296.64 113.69Q299.02 113.69 300.83 112.56Q302.64 111.42 303.66 109.27H315.06Q313.65 115.8 308.79 119.61Q303.93 123.41 296.8 123.41Q291.19 123.41 286.87 120.96Q282.55 118.5 280.2 114.1Q277.85 109.7 277.85 104.03ZM340.98 123.14 333.42 109.1H332.28V123.14H321.7V85.07H338.38Q342.97 85.07 346.16 86.67Q349.35 88.26 350.97 91.04Q352.59 93.82 352.59 97.28Q352.59 101.17 350.45 104.11Q348.32 107.05 344.22 108.29L352.8 123.14H340.98ZM332.28 101.87H337.52Q339.68 101.87 340.76 100.84Q341.84 99.81 341.84 97.87Q341.84 96.03 340.73 94.98Q339.63 93.93 337.52 93.93H332.28V101.87ZM369.6 85.07V123.14H359.01V85.07H369.6ZM401.56 103.59Q404.91 104.35 406.88 106.92Q408.85 109.48 408.85 112.78Q408.85 117.64 405.51 120.39Q402.16 123.14 396.11 123.14H377.26V85.07H395.52Q401.35 85.07 404.67 87.66Q407.99 90.26 407.99 94.95Q407.99 98.3 406.24 100.54Q404.48 102.78 401.56 103.59ZM387.85 100.19H393.19Q397.19 100.19 397.19 96.9Q397.19 93.5 393.19 93.5H387.85V100.19ZM394 114.61Q398 114.61 398 111.26Q398 109.53 396.95 108.62Q395.89 107.7 393.95 107.7H387.85V114.61H394ZM425.7 93.55V99.76H437.85V107.81H425.7V114.67H439.47V123.14H415.12V85.07H439.47V93.55H425.7Z" fill="#FFFFFF"/><g transform="translate(417.47 136) rotate(-14) scale(1.05)"><path d="M0 0L0 80L20 62L34 93L49 86L35 56L61 56Z" fill="#FFFFFF" stroke="#1B1B1F" stroke-width="7" stroke-linejoin="round"/></g></svg>